<mxfile host="app.diagrams.net" modified="2021-11-15T13:25:01.836Z" agent="5.0 (Windows NT 10.0; Win64; x64) AppleWebKit/537.36 (KHTML, like Gecko) Chrome/95.0.4638.69 Safari/537.36" etag="kSCmst2QRT2HQztGkWIo" version="15.7.1" type="github">
  <diagram id="pqvs_DR59SyMPePzqnv_" name="Page-1">
    <mxGraphModel dx="1504" dy="644" grid="1" gridSize="10" guides="1" tooltips="1" connect="1" arrows="1" fold="1" page="1" pageScale="1" pageWidth="2336" pageHeight="1654" math="0" shadow="0">
      <root>
        <mxCell id="0" />
        <mxCell id="1" parent="0" />
        <mxCell id="ofF9UcVz3urmuUXSZ8fn-1" value="A1" style="whiteSpace=wrap;html=1;aspect=fixed;" vertex="1" parent="1">
          <mxGeometry x="340" y="140" width="50" height="50" as="geometry" />
        </mxCell>
        <mxCell id="ofF9UcVz3urmuUXSZ8fn-2" value="A3" style="whiteSpace=wrap;html=1;aspect=fixed;" vertex="1" parent="1">
          <mxGeometry x="60" y="240" width="50" height="50" as="geometry" />
        </mxCell>
        <mxCell id="ofF9UcVz3urmuUXSZ8fn-3" value="A9" style="whiteSpace=wrap;html=1;aspect=fixed;" vertex="1" parent="1">
          <mxGeometry x="460" y="240" width="50" height="50" as="geometry" />
        </mxCell>
        <mxCell id="ofF9UcVz3urmuUXSZ8fn-4" value="A10" style="whiteSpace=wrap;html=1;aspect=fixed;" vertex="1" parent="1">
          <mxGeometry x="540" y="240" width="50" height="50" as="geometry" />
        </mxCell>
        <mxCell id="ofF9UcVz3urmuUXSZ8fn-5" value="A11" style="whiteSpace=wrap;html=1;aspect=fixed;" vertex="1" parent="1">
          <mxGeometry x="620" y="240" width="50" height="50" as="geometry" />
        </mxCell>
        <mxCell id="ofF9UcVz3urmuUXSZ8fn-6" value="A8" style="whiteSpace=wrap;html=1;aspect=fixed;" vertex="1" parent="1">
          <mxGeometry x="380" y="240" width="50" height="50" as="geometry" />
        </mxCell>
        <mxCell id="ofF9UcVz3urmuUXSZ8fn-7" value="A6" style="whiteSpace=wrap;html=1;aspect=fixed;" vertex="1" parent="1">
          <mxGeometry x="300" y="240" width="50" height="50" as="geometry" />
        </mxCell>
        <mxCell id="ofF9UcVz3urmuUXSZ8fn-8" value="A5" style="whiteSpace=wrap;html=1;aspect=fixed;" vertex="1" parent="1">
          <mxGeometry x="220" y="240" width="50" height="50" as="geometry" />
        </mxCell>
        <mxCell id="ofF9UcVz3urmuUXSZ8fn-9" value="A4" style="whiteSpace=wrap;html=1;aspect=fixed;" vertex="1" parent="1">
          <mxGeometry x="140" y="240" width="50" height="50" as="geometry" />
        </mxCell>
        <mxCell id="ofF9UcVz3urmuUXSZ8fn-12" value="" style="endArrow=classic;startArrow=classic;html=1;rounded=0;exitX=0.5;exitY=0;exitDx=0;exitDy=0;entryX=0;entryY=0.75;entryDx=0;entryDy=0;" edge="1" parent="1" source="ofF9UcVz3urmuUXSZ8fn-2" target="ofF9UcVz3urmuUXSZ8fn-1">
          <mxGeometry width="50" height="50" relative="1" as="geometry">
            <mxPoint x="160" y="230" as="sourcePoint" />
            <mxPoint x="210" y="180" as="targetPoint" />
          </mxGeometry>
        </mxCell>
        <mxCell id="ofF9UcVz3urmuUXSZ8fn-13" value="" style="endArrow=classic;startArrow=classic;html=1;rounded=0;exitX=0.5;exitY=0;exitDx=0;exitDy=0;entryX=0;entryY=1;entryDx=0;entryDy=0;" edge="1" parent="1" source="ofF9UcVz3urmuUXSZ8fn-9" target="ofF9UcVz3urmuUXSZ8fn-1">
          <mxGeometry width="50" height="50" relative="1" as="geometry">
            <mxPoint x="300" y="420" as="sourcePoint" />
            <mxPoint x="330" y="220" as="targetPoint" />
          </mxGeometry>
        </mxCell>
        <mxCell id="ofF9UcVz3urmuUXSZ8fn-14" value="" style="endArrow=classic;startArrow=classic;html=1;rounded=0;exitX=0.5;exitY=0;exitDx=0;exitDy=0;entryX=1;entryY=1;entryDx=0;entryDy=0;" edge="1" parent="1" source="ofF9UcVz3urmuUXSZ8fn-4" target="ofF9UcVz3urmuUXSZ8fn-1">
          <mxGeometry width="50" height="50" relative="1" as="geometry">
            <mxPoint x="270" y="460" as="sourcePoint" />
            <mxPoint x="400" y="210" as="targetPoint" />
          </mxGeometry>
        </mxCell>
        <mxCell id="ofF9UcVz3urmuUXSZ8fn-15" value="" style="endArrow=classic;startArrow=classic;html=1;rounded=0;entryX=1;entryY=0.75;entryDx=0;entryDy=0;exitX=0.5;exitY=0;exitDx=0;exitDy=0;" edge="1" parent="1" source="ofF9UcVz3urmuUXSZ8fn-5" target="ofF9UcVz3urmuUXSZ8fn-1">
          <mxGeometry width="50" height="50" relative="1" as="geometry">
            <mxPoint x="390" y="440" as="sourcePoint" />
            <mxPoint x="440" y="390" as="targetPoint" />
          </mxGeometry>
        </mxCell>
        <mxCell id="ofF9UcVz3urmuUXSZ8fn-16" value="" style="endArrow=classic;startArrow=classic;html=1;rounded=0;exitX=0.5;exitY=0;exitDx=0;exitDy=0;entryX=0.25;entryY=1;entryDx=0;entryDy=0;" edge="1" parent="1" source="ofF9UcVz3urmuUXSZ8fn-8" target="ofF9UcVz3urmuUXSZ8fn-1">
          <mxGeometry width="50" height="50" relative="1" as="geometry">
            <mxPoint x="210" y="490" as="sourcePoint" />
            <mxPoint x="260" y="440" as="targetPoint" />
          </mxGeometry>
        </mxCell>
        <mxCell id="ofF9UcVz3urmuUXSZ8fn-17" value="" style="endArrow=classic;startArrow=classic;html=1;rounded=0;entryX=0.75;entryY=1;entryDx=0;entryDy=0;exitX=0.5;exitY=0;exitDx=0;exitDy=0;" edge="1" parent="1" source="ofF9UcVz3urmuUXSZ8fn-3" target="ofF9UcVz3urmuUXSZ8fn-1">
          <mxGeometry width="50" height="50" relative="1" as="geometry">
            <mxPoint x="240" y="450" as="sourcePoint" />
            <mxPoint x="290" y="400" as="targetPoint" />
          </mxGeometry>
        </mxCell>
        <mxCell id="ofF9UcVz3urmuUXSZ8fn-18" value="" style="endArrow=classic;startArrow=classic;html=1;rounded=0;exitX=0.5;exitY=0;exitDx=0;exitDy=0;entryX=0.5;entryY=1;entryDx=0;entryDy=0;" edge="1" parent="1" source="ofF9UcVz3urmuUXSZ8fn-7" target="ofF9UcVz3urmuUXSZ8fn-1">
          <mxGeometry width="50" height="50" relative="1" as="geometry">
            <mxPoint x="290" y="450" as="sourcePoint" />
            <mxPoint x="340" y="400" as="targetPoint" />
          </mxGeometry>
        </mxCell>
        <mxCell id="ofF9UcVz3urmuUXSZ8fn-19" value="" style="endArrow=classic;startArrow=classic;html=1;rounded=0;entryX=0.5;entryY=1;entryDx=0;entryDy=0;exitX=0.5;exitY=0;exitDx=0;exitDy=0;" edge="1" parent="1" source="ofF9UcVz3urmuUXSZ8fn-6" target="ofF9UcVz3urmuUXSZ8fn-1">
          <mxGeometry width="50" height="50" relative="1" as="geometry">
            <mxPoint x="280" y="440" as="sourcePoint" />
            <mxPoint x="330" y="390" as="targetPoint" />
          </mxGeometry>
        </mxCell>
        <mxCell id="ofF9UcVz3urmuUXSZ8fn-20" value="A21" style="whiteSpace=wrap;html=1;aspect=fixed;" vertex="1" parent="1">
          <mxGeometry x="660" y="340" width="50" height="50" as="geometry" />
        </mxCell>
        <mxCell id="ofF9UcVz3urmuUXSZ8fn-21" value="A12" style="whiteSpace=wrap;html=1;aspect=fixed;" vertex="1" parent="1">
          <mxGeometry x="20" y="340" width="50" height="50" as="geometry" />
        </mxCell>
        <mxCell id="ofF9UcVz3urmuUXSZ8fn-22" value="A14" style="whiteSpace=wrap;html=1;aspect=fixed;" vertex="1" parent="1">
          <mxGeometry x="100" y="340" width="50" height="50" as="geometry" />
        </mxCell>
        <mxCell id="ofF9UcVz3urmuUXSZ8fn-23" value="A15" style="whiteSpace=wrap;html=1;aspect=fixed;" vertex="1" parent="1">
          <mxGeometry x="180" y="340" width="50" height="50" as="geometry" />
        </mxCell>
        <mxCell id="ofF9UcVz3urmuUXSZ8fn-24" value="A20" style="whiteSpace=wrap;html=1;aspect=fixed;" vertex="1" parent="1">
          <mxGeometry x="580" y="340" width="50" height="50" as="geometry" />
        </mxCell>
        <mxCell id="ofF9UcVz3urmuUXSZ8fn-25" value="A19" style="whiteSpace=wrap;html=1;aspect=fixed;" vertex="1" parent="1">
          <mxGeometry x="500" y="340" width="50" height="50" as="geometry" />
        </mxCell>
        <mxCell id="ofF9UcVz3urmuUXSZ8fn-26" value="A18" style="whiteSpace=wrap;html=1;aspect=fixed;" vertex="1" parent="1">
          <mxGeometry x="420" y="340" width="50" height="50" as="geometry" />
        </mxCell>
        <mxCell id="ofF9UcVz3urmuUXSZ8fn-27" value="A17" style="whiteSpace=wrap;html=1;aspect=fixed;" vertex="1" parent="1">
          <mxGeometry x="340" y="340" width="50" height="50" as="geometry" />
        </mxCell>
        <mxCell id="ofF9UcVz3urmuUXSZ8fn-28" value="A16" style="whiteSpace=wrap;html=1;aspect=fixed;" vertex="1" parent="1">
          <mxGeometry x="260" y="340" width="50" height="50" as="geometry" />
        </mxCell>
        <mxCell id="ofF9UcVz3urmuUXSZ8fn-29" value="" style="endArrow=classic;startArrow=classic;html=1;rounded=0;entryX=0.5;entryY=1;entryDx=0;entryDy=0;exitX=0.5;exitY=0;exitDx=0;exitDy=0;" edge="1" parent="1" source="ofF9UcVz3urmuUXSZ8fn-24" target="ofF9UcVz3urmuUXSZ8fn-4">
          <mxGeometry width="50" height="50" relative="1" as="geometry">
            <mxPoint x="520" y="600" as="sourcePoint" />
            <mxPoint x="570" y="550" as="targetPoint" />
          </mxGeometry>
        </mxCell>
        <mxCell id="ofF9UcVz3urmuUXSZ8fn-30" value="" style="endArrow=classic;startArrow=classic;html=1;rounded=0;entryX=0.75;entryY=1;entryDx=0;entryDy=0;exitX=0.5;exitY=0;exitDx=0;exitDy=0;" edge="1" parent="1" source="ofF9UcVz3urmuUXSZ8fn-20" target="ofF9UcVz3urmuUXSZ8fn-4">
          <mxGeometry width="50" height="50" relative="1" as="geometry">
            <mxPoint x="470" y="510" as="sourcePoint" />
            <mxPoint x="520" y="460" as="targetPoint" />
          </mxGeometry>
        </mxCell>
        <mxCell id="ofF9UcVz3urmuUXSZ8fn-31" value="" style="endArrow=classic;startArrow=classic;html=1;rounded=0;entryX=0.75;entryY=1;entryDx=0;entryDy=0;exitX=0.5;exitY=0;exitDx=0;exitDy=0;" edge="1" parent="1" source="ofF9UcVz3urmuUXSZ8fn-26" target="ofF9UcVz3urmuUXSZ8fn-3">
          <mxGeometry width="50" height="50" relative="1" as="geometry">
            <mxPoint x="460" y="570" as="sourcePoint" />
            <mxPoint x="510" y="520" as="targetPoint" />
          </mxGeometry>
        </mxCell>
        <mxCell id="ofF9UcVz3urmuUXSZ8fn-32" value="" style="endArrow=classic;startArrow=classic;html=1;rounded=0;exitX=0.5;exitY=0;exitDx=0;exitDy=0;entryX=1;entryY=1;entryDx=0;entryDy=0;" edge="1" parent="1" source="ofF9UcVz3urmuUXSZ8fn-25" target="ofF9UcVz3urmuUXSZ8fn-3">
          <mxGeometry width="50" height="50" relative="1" as="geometry">
            <mxPoint x="430" y="560" as="sourcePoint" />
            <mxPoint x="525" y="265" as="targetPoint" />
          </mxGeometry>
        </mxCell>
        <mxCell id="ofF9UcVz3urmuUXSZ8fn-33" value="" style="endArrow=classic;startArrow=classic;html=1;rounded=0;entryX=0;entryY=1;entryDx=0;entryDy=0;exitX=0.5;exitY=0;exitDx=0;exitDy=0;" edge="1" parent="1" source="ofF9UcVz3urmuUXSZ8fn-21" target="ofF9UcVz3urmuUXSZ8fn-3">
          <mxGeometry width="50" height="50" relative="1" as="geometry">
            <mxPoint x="60" y="560" as="sourcePoint" />
            <mxPoint x="110" y="510" as="targetPoint" />
          </mxGeometry>
        </mxCell>
        <mxCell id="ofF9UcVz3urmuUXSZ8fn-34" value="" style="endArrow=classic;startArrow=classic;html=1;rounded=0;exitX=0.5;exitY=0;exitDx=0;exitDy=0;entryX=0.25;entryY=1;entryDx=0;entryDy=0;" edge="1" parent="1" source="ofF9UcVz3urmuUXSZ8fn-22" target="ofF9UcVz3urmuUXSZ8fn-3">
          <mxGeometry width="50" height="50" relative="1" as="geometry">
            <mxPoint x="100" y="590" as="sourcePoint" />
            <mxPoint x="150" y="540" as="targetPoint" />
          </mxGeometry>
        </mxCell>
        <mxCell id="ofF9UcVz3urmuUXSZ8fn-35" value="" style="endArrow=classic;startArrow=classic;html=1;rounded=0;entryX=0.5;entryY=1;entryDx=0;entryDy=0;exitX=0.5;exitY=0;exitDx=0;exitDy=0;" edge="1" parent="1" source="ofF9UcVz3urmuUXSZ8fn-28" target="ofF9UcVz3urmuUXSZ8fn-3">
          <mxGeometry width="50" height="50" relative="1" as="geometry">
            <mxPoint x="150" y="540" as="sourcePoint" />
            <mxPoint x="200" y="490" as="targetPoint" />
          </mxGeometry>
        </mxCell>
        <mxCell id="ofF9UcVz3urmuUXSZ8fn-36" value="" style="endArrow=classic;startArrow=classic;html=1;rounded=0;exitX=0.5;exitY=0;exitDx=0;exitDy=0;entryX=0.75;entryY=1;entryDx=0;entryDy=0;" edge="1" parent="1" source="ofF9UcVz3urmuUXSZ8fn-27" target="ofF9UcVz3urmuUXSZ8fn-3">
          <mxGeometry width="50" height="50" relative="1" as="geometry">
            <mxPoint x="160" y="550" as="sourcePoint" />
            <mxPoint x="210" y="500" as="targetPoint" />
          </mxGeometry>
        </mxCell>
        <mxCell id="ofF9UcVz3urmuUXSZ8fn-37" value="" style="endArrow=classic;startArrow=classic;html=1;rounded=0;exitX=0.5;exitY=0;exitDx=0;exitDy=0;" edge="1" parent="1" source="ofF9UcVz3urmuUXSZ8fn-23">
          <mxGeometry width="50" height="50" relative="1" as="geometry">
            <mxPoint x="80" y="540" as="sourcePoint" />
            <mxPoint x="470" y="290" as="targetPoint" />
          </mxGeometry>
        </mxCell>
        <mxCell id="ofF9UcVz3urmuUXSZ8fn-38" value="A22" style="whiteSpace=wrap;html=1;aspect=fixed;" vertex="1" parent="1">
          <mxGeometry x="60" y="440" width="50" height="50" as="geometry" />
        </mxCell>
        <mxCell id="ofF9UcVz3urmuUXSZ8fn-39" value="A24" style="whiteSpace=wrap;html=1;aspect=fixed;" vertex="1" parent="1">
          <mxGeometry x="140" y="440" width="50" height="50" as="geometry" />
        </mxCell>
        <mxCell id="ofF9UcVz3urmuUXSZ8fn-40" value="A25" style="whiteSpace=wrap;html=1;aspect=fixed;" vertex="1" parent="1">
          <mxGeometry x="220" y="440" width="50" height="50" as="geometry" />
        </mxCell>
        <mxCell id="ofF9UcVz3urmuUXSZ8fn-41" value="A26" style="whiteSpace=wrap;html=1;aspect=fixed;" vertex="1" parent="1">
          <mxGeometry x="300" y="440" width="50" height="50" as="geometry" />
        </mxCell>
        <mxCell id="ofF9UcVz3urmuUXSZ8fn-42" value="A27" style="whiteSpace=wrap;html=1;aspect=fixed;" vertex="1" parent="1">
          <mxGeometry x="380" y="440" width="50" height="50" as="geometry" />
        </mxCell>
        <mxCell id="ofF9UcVz3urmuUXSZ8fn-43" value="A28" style="whiteSpace=wrap;html=1;aspect=fixed;" vertex="1" parent="1">
          <mxGeometry x="460" y="440" width="50" height="50" as="geometry" />
        </mxCell>
        <mxCell id="ofF9UcVz3urmuUXSZ8fn-44" value="A29" style="whiteSpace=wrap;html=1;aspect=fixed;" vertex="1" parent="1">
          <mxGeometry x="540" y="440" width="50" height="50" as="geometry" />
        </mxCell>
        <mxCell id="ofF9UcVz3urmuUXSZ8fn-45" value="A3" style="whiteSpace=wrap;html=1;aspect=fixed;" vertex="1" parent="1">
          <mxGeometry x="620" y="440" width="50" height="50" as="geometry" />
        </mxCell>
        <mxCell id="ofF9UcVz3urmuUXSZ8fn-46" value="" style="endArrow=classic;startArrow=classic;html=1;rounded=0;exitX=0.5;exitY=0;exitDx=0;exitDy=0;entryX=0.25;entryY=1;entryDx=0;entryDy=0;" edge="1" parent="1" source="ofF9UcVz3urmuUXSZ8fn-38" target="ofF9UcVz3urmuUXSZ8fn-22">
          <mxGeometry width="50" height="50" relative="1" as="geometry">
            <mxPoint x="190" y="580" as="sourcePoint" />
            <mxPoint x="125" y="420" as="targetPoint" />
          </mxGeometry>
        </mxCell>
        <mxCell id="ofF9UcVz3urmuUXSZ8fn-47" value="" style="endArrow=classic;startArrow=classic;html=1;rounded=0;entryX=0.75;entryY=1;entryDx=0;entryDy=0;exitX=0.5;exitY=0;exitDx=0;exitDy=0;" edge="1" parent="1" source="ofF9UcVz3urmuUXSZ8fn-39" target="ofF9UcVz3urmuUXSZ8fn-22">
          <mxGeometry width="50" height="50" relative="1" as="geometry">
            <mxPoint x="120" y="590" as="sourcePoint" />
            <mxPoint x="170" y="540" as="targetPoint" />
          </mxGeometry>
        </mxCell>
        <mxCell id="ofF9UcVz3urmuUXSZ8fn-48" value="" style="endArrow=classic;startArrow=classic;html=1;rounded=0;entryX=0.25;entryY=1;entryDx=0;entryDy=0;exitX=0.5;exitY=0;exitDx=0;exitDy=0;" edge="1" parent="1" source="ofF9UcVz3urmuUXSZ8fn-40" target="ofF9UcVz3urmuUXSZ8fn-23">
          <mxGeometry width="50" height="50" relative="1" as="geometry">
            <mxPoint x="220" y="600" as="sourcePoint" />
            <mxPoint x="270" y="550" as="targetPoint" />
          </mxGeometry>
        </mxCell>
        <mxCell id="ofF9UcVz3urmuUXSZ8fn-49" value="" style="endArrow=classic;startArrow=classic;html=1;rounded=0;entryX=0.5;entryY=1;entryDx=0;entryDy=0;exitX=0.5;exitY=0;exitDx=0;exitDy=0;" edge="1" parent="1" source="ofF9UcVz3urmuUXSZ8fn-41" target="ofF9UcVz3urmuUXSZ8fn-23">
          <mxGeometry width="50" height="50" relative="1" as="geometry">
            <mxPoint x="210" y="580" as="sourcePoint" />
            <mxPoint x="260" y="530" as="targetPoint" />
          </mxGeometry>
        </mxCell>
        <mxCell id="ofF9UcVz3urmuUXSZ8fn-50" value="" style="endArrow=classic;startArrow=classic;html=1;rounded=0;entryX=0.75;entryY=1;entryDx=0;entryDy=0;exitX=0.5;exitY=0;exitDx=0;exitDy=0;" edge="1" parent="1" source="ofF9UcVz3urmuUXSZ8fn-42" target="ofF9UcVz3urmuUXSZ8fn-23">
          <mxGeometry width="50" height="50" relative="1" as="geometry">
            <mxPoint x="190" y="610" as="sourcePoint" />
            <mxPoint x="240" y="560" as="targetPoint" />
          </mxGeometry>
        </mxCell>
        <mxCell id="ofF9UcVz3urmuUXSZ8fn-51" value="" style="endArrow=classic;startArrow=classic;html=1;rounded=0;entryX=0.25;entryY=1;entryDx=0;entryDy=0;exitX=0.5;exitY=0;exitDx=0;exitDy=0;" edge="1" parent="1" source="ofF9UcVz3urmuUXSZ8fn-43" target="ofF9UcVz3urmuUXSZ8fn-26">
          <mxGeometry width="50" height="50" relative="1" as="geometry">
            <mxPoint x="450" y="610" as="sourcePoint" />
            <mxPoint x="500" y="560" as="targetPoint" />
          </mxGeometry>
        </mxCell>
        <mxCell id="ofF9UcVz3urmuUXSZ8fn-52" value="" style="endArrow=classic;startArrow=classic;html=1;rounded=0;entryX=0.75;entryY=1;entryDx=0;entryDy=0;exitX=0.5;exitY=0;exitDx=0;exitDy=0;" edge="1" parent="1" source="ofF9UcVz3urmuUXSZ8fn-45" target="ofF9UcVz3urmuUXSZ8fn-26">
          <mxGeometry width="50" height="50" relative="1" as="geometry">
            <mxPoint x="510" y="620" as="sourcePoint" />
            <mxPoint x="560" y="570" as="targetPoint" />
          </mxGeometry>
        </mxCell>
        <mxCell id="ofF9UcVz3urmuUXSZ8fn-53" value="" style="endArrow=classic;startArrow=classic;html=1;rounded=0;entryX=0.5;entryY=1;entryDx=0;entryDy=0;exitX=0.5;exitY=0;exitDx=0;exitDy=0;" edge="1" parent="1" source="ofF9UcVz3urmuUXSZ8fn-44" target="ofF9UcVz3urmuUXSZ8fn-26">
          <mxGeometry width="50" height="50" relative="1" as="geometry">
            <mxPoint x="440" y="620" as="sourcePoint" />
            <mxPoint x="490" y="570" as="targetPoint" />
          </mxGeometry>
        </mxCell>
        <mxCell id="ofF9UcVz3urmuUXSZ8fn-54" value="A35" style="whiteSpace=wrap;html=1;aspect=fixed;" vertex="1" parent="1">
          <mxGeometry x="340" y="540" width="50" height="50" as="geometry" />
        </mxCell>
        <mxCell id="ofF9UcVz3urmuUXSZ8fn-55" value="A32" style="whiteSpace=wrap;html=1;aspect=fixed;" vertex="1" parent="1">
          <mxGeometry x="100" y="540" width="50" height="50" as="geometry" />
        </mxCell>
        <mxCell id="ofF9UcVz3urmuUXSZ8fn-56" value="A33" style="whiteSpace=wrap;html=1;aspect=fixed;" vertex="1" parent="1">
          <mxGeometry x="180" y="540" width="50" height="50" as="geometry" />
        </mxCell>
        <mxCell id="ofF9UcVz3urmuUXSZ8fn-57" value="A34" style="whiteSpace=wrap;html=1;aspect=fixed;" vertex="1" parent="1">
          <mxGeometry x="260" y="540" width="50" height="50" as="geometry" />
        </mxCell>
        <mxCell id="ofF9UcVz3urmuUXSZ8fn-58" value="A40" style="whiteSpace=wrap;html=1;aspect=fixed;" vertex="1" parent="1">
          <mxGeometry x="580" y="540" width="50" height="50" as="geometry" />
        </mxCell>
        <mxCell id="ofF9UcVz3urmuUXSZ8fn-59" value="A39" style="whiteSpace=wrap;html=1;aspect=fixed;" vertex="1" parent="1">
          <mxGeometry x="500" y="540" width="50" height="50" as="geometry" />
        </mxCell>
        <mxCell id="ofF9UcVz3urmuUXSZ8fn-60" value="A37" style="whiteSpace=wrap;html=1;aspect=fixed;" vertex="1" parent="1">
          <mxGeometry x="420" y="540" width="50" height="50" as="geometry" />
        </mxCell>
        <mxCell id="ofF9UcVz3urmuUXSZ8fn-61" value="" style="endArrow=classic;startArrow=classic;html=1;rounded=0;entryX=0.25;entryY=1;entryDx=0;entryDy=0;exitX=0.5;exitY=0;exitDx=0;exitDy=0;" edge="1" parent="1" source="ofF9UcVz3urmuUXSZ8fn-55" target="ofF9UcVz3urmuUXSZ8fn-38">
          <mxGeometry width="50" height="50" relative="1" as="geometry">
            <mxPoint x="70" y="690" as="sourcePoint" />
            <mxPoint x="120" y="640" as="targetPoint" />
          </mxGeometry>
        </mxCell>
        <mxCell id="ofF9UcVz3urmuUXSZ8fn-62" value="" style="endArrow=classic;startArrow=classic;html=1;rounded=0;entryX=0.5;entryY=1;entryDx=0;entryDy=0;exitX=0.5;exitY=0;exitDx=0;exitDy=0;" edge="1" parent="1" source="ofF9UcVz3urmuUXSZ8fn-56" target="ofF9UcVz3urmuUXSZ8fn-38">
          <mxGeometry width="50" height="50" relative="1" as="geometry">
            <mxPoint x="90" y="690" as="sourcePoint" />
            <mxPoint x="140" y="640" as="targetPoint" />
          </mxGeometry>
        </mxCell>
        <mxCell id="ofF9UcVz3urmuUXSZ8fn-63" value="" style="endArrow=classic;startArrow=classic;html=1;rounded=0;entryX=0.75;entryY=1;entryDx=0;entryDy=0;exitX=0.5;exitY=0;exitDx=0;exitDy=0;" edge="1" parent="1" source="ofF9UcVz3urmuUXSZ8fn-57" target="ofF9UcVz3urmuUXSZ8fn-38">
          <mxGeometry width="50" height="50" relative="1" as="geometry">
            <mxPoint x="210" y="720" as="sourcePoint" />
            <mxPoint x="260" y="670" as="targetPoint" />
          </mxGeometry>
        </mxCell>
        <mxCell id="ofF9UcVz3urmuUXSZ8fn-64" value="" style="endArrow=classic;startArrow=classic;html=1;rounded=0;entryX=0.25;entryY=1;entryDx=0;entryDy=0;exitX=0.5;exitY=0;exitDx=0;exitDy=0;" edge="1" parent="1" source="ofF9UcVz3urmuUXSZ8fn-54" target="ofF9UcVz3urmuUXSZ8fn-40">
          <mxGeometry width="50" height="50" relative="1" as="geometry">
            <mxPoint x="270" y="660" as="sourcePoint" />
            <mxPoint x="320" y="610" as="targetPoint" />
          </mxGeometry>
        </mxCell>
        <mxCell id="ofF9UcVz3urmuUXSZ8fn-65" value="" style="endArrow=classic;startArrow=classic;html=1;rounded=0;entryX=0.75;entryY=1;entryDx=0;entryDy=0;exitX=0.5;exitY=0;exitDx=0;exitDy=0;" edge="1" parent="1" source="ofF9UcVz3urmuUXSZ8fn-60" target="ofF9UcVz3urmuUXSZ8fn-40">
          <mxGeometry width="50" height="50" relative="1" as="geometry">
            <mxPoint x="170" y="680" as="sourcePoint" />
            <mxPoint x="220" y="630" as="targetPoint" />
          </mxGeometry>
        </mxCell>
        <mxCell id="ofF9UcVz3urmuUXSZ8fn-66" value="" style="endArrow=classic;startArrow=classic;html=1;rounded=0;entryX=0.25;entryY=1;entryDx=0;entryDy=0;exitX=0.5;exitY=0;exitDx=0;exitDy=0;" edge="1" parent="1" source="ofF9UcVz3urmuUXSZ8fn-59" target="ofF9UcVz3urmuUXSZ8fn-43">
          <mxGeometry width="50" height="50" relative="1" as="geometry">
            <mxPoint x="370" y="720" as="sourcePoint" />
            <mxPoint x="420" y="670" as="targetPoint" />
          </mxGeometry>
        </mxCell>
        <mxCell id="ofF9UcVz3urmuUXSZ8fn-67" value="" style="endArrow=classic;startArrow=classic;html=1;rounded=0;entryX=0.75;entryY=1;entryDx=0;entryDy=0;exitX=0.5;exitY=0;exitDx=0;exitDy=0;" edge="1" parent="1" source="ofF9UcVz3urmuUXSZ8fn-58" target="ofF9UcVz3urmuUXSZ8fn-43">
          <mxGeometry width="50" height="50" relative="1" as="geometry">
            <mxPoint x="330" y="680" as="sourcePoint" />
            <mxPoint x="380" y="630" as="targetPoint" />
          </mxGeometry>
        </mxCell>
      </root>
    </mxGraphModel>
  </diagram>
</mxfile>
